<svg width="32" height="32" viewBox="0 0 32 32" fill="none" xmlns="http://www.w3.org/2000/svg">
<path fill-rule="evenodd" clip-rule="evenodd" d="M15.9996 9.58446L16.842 8.74311C18.0037 7.5814 19.5268 7 21.0499 7C22.5718 7 24.0949 7.5814 25.2566 8.74311C27.5811 11.0665 27.5811 14.8343 25.2566 17.1588L24.4153 18.0001L15.9996 26.4158L14.4748 24.8908L17.7928 21.5728L17.7925 21.5725L22.8901 16.4749L23.7314 15.6325C24.4476 14.9163 24.8435 13.9638 24.8435 12.9509C24.8435 11.9381 24.4476 10.9846 23.7314 10.2683C23.0152 9.5521 22.0616 9.15731 21.0499 9.15731C20.037 9.15731 19.0835 9.5521 18.3672 10.2683L17.5248 11.1097L15.9996 12.636L14.4744 11.1097L13.633 10.2683C12.9157 9.5521 11.9643 9.15731 10.9504 9.15731C9.93755 9.15731 8.98402 9.5521 8.26779 10.2683C7.55156 10.9846 7.15677 11.9381 7.15677 12.9509C7.15677 13.9638 7.55156 14.9163 8.26779 15.6325L9.11022 16.4749L14.5858 21.9514L13.0607 23.4765L7.585 18.0001L6.74257 17.1588C4.41914 14.8343 4.41914 11.0665 6.74257 8.74311C7.90428 7.5814 9.42734 7 10.9504 7C12.4735 7 13.9965 7.5814 15.1582 8.74311L15.9996 9.58446Z" fill="#5A6A72"/>
</svg>
