<svg width="32" height="32" viewBox="0 0 32 32" fill="none" xmlns="http://www.w3.org/2000/svg">
<path d="M11.6658 9.072C11.9858 9.008 12.2418 8.98667 12.4338 9.008C12.6258 9.008 12.9245 9.08267 13.3298 9.232C13.5432 9.296 13.7245 9.37067 13.8738 9.456C14.0232 9.54133 14.1725 9.648 14.3218 9.776C14.4712 9.904 14.6525 10.0853 14.8658 10.32C15.3992 10.8747 15.7938 11.3333 16.0498 11.696C16.2632 12.016 16.4552 12.1867 16.6258 12.208C16.8178 12.208 16.9565 12.0587 17.0418 11.76C17.2552 11.1627 17.6605 10.576 18.2578 10C18.8552 9.424 19.5912 9.12533 20.4658 9.104C21.3405 9.06133 21.9165 9.31733 22.1938 9.872C22.3218 10.128 22.4392 10.32 22.5458 10.448C22.6738 10.64 22.8552 11.216 23.0898 12.176C23.1538 12.56 23.1112 12.976 22.9618 13.424C22.8552 13.7653 22.6738 14.384 22.4178 15.28C21.8632 17.2 21.2978 18.5013 20.7218 19.184C20.5298 19.44 20.2632 19.7813 19.9218 20.208C19.6872 20.528 19.4205 20.784 19.1218 20.976C18.7592 21.1893 18.0765 21.7547 17.0738 22.672C16.5618 23.12 16.0925 23.248 15.6658 23.056C15.4525 22.9707 15.3458 22.8853 15.3458 22.8C15.3458 22.736 14.9618 22.2987 14.1938 21.488C13.4258 20.6773 12.9352 20.1013 12.7218 19.76C12.4872 19.376 12.1032 18.8747 11.5698 18.256C11.3138 17.936 11.1112 17.6907 10.9618 17.52C10.8338 17.3493 10.7058 17.168 10.5778 16.976C10.4498 16.784 10.3325 16.6027 10.2258 16.432C10.1405 16.2613 10.0232 16.016 9.87385 15.696C9.40451 14.8213 9.11651 13.904 9.00985 12.944C8.96718 12.432 9.06318 11.8987 9.29785 11.344C9.53251 10.7893 9.86318 10.3093 10.2898 9.904C10.7378 9.47733 11.1965 9.2 11.6658 9.072Z" fill="#FF4F6E"/>
</svg>
