<svg width="32" height="32" viewBox="0 0 32 32" fill="none" xmlns="http://www.w3.org/2000/svg">
<path fill-rule="evenodd" clip-rule="evenodd" d="M10.184 11L11 11H21L21.815 11L20.668 24H12H11.331H9.32353L9.5 26H22.5L23.8235 11H25V9H24H20.584C19.8124 7.2341 18.0503 6 16 6C13.9497 6 12.1876 7.2341 11.416 9H8H7V11H8.17647L9.14706 22H11.1545L10.184 11ZM18.236 9H13.763L13.8967 8.86086C14.4381 8.32845 15.1807 8 16 8L16.1775 8.00517C16.9409 8.04981 17.6294 8.38052 18.1352 8.89262L18.236 9ZM15 13H13.2V22H15V13ZM18.8 13H17V22H18.8V13Z" fill="#FF4F6E"/>
</svg>
