<svg width="80" height="40" viewBox="0 0 80 40" fill="none" xmlns="http://www.w3.org/2000/svg">
<path d="M51.028 20.1853C49.7819 20.5148 48.6189 20.4736 47.5389 20.0618C46.3759 19.7323 45.379 19.1969 44.5483 18.4556C43.6345 17.7143 42.9283 16.8082 42.4299 15.7374C41.8484 14.6667 41.5576 13.5959 41.5576 12.5251C41.5576 10.3835 42.3468 8.40669 43.9252 6.59459C45.5036 4.86486 47.5805 3.99999 50.1558 3.99999C53.3126 3.99999 55.7632 5.11196 57.5078 7.3359C59.1693 9.64221 60 12.4839 60 15.861C60 20.4736 58.7539 24.592 56.2617 28.2162C53.7695 31.8404 50.0727 34.435 45.1713 36L42.8037 32.7876C45.7944 31.6345 48.162 30.0283 49.9065 27.9691C51.568 25.9923 52.3988 23.7272 52.3988 21.1737C52.3988 20.1853 51.9418 19.8559 51.028 20.1853ZM29.4704 20.1853C28.2243 20.5148 27.0197 20.4736 25.8567 20.0618C24.6937 19.7323 23.6968 19.1969 22.866 18.4556C21.9522 17.7143 21.2461 16.8082 20.7477 15.7375C20.2492 14.6667 20 13.5959 20 12.5251C20 10.3835 20.7892 8.40669 22.3676 6.59459C23.946 4.86486 26.0228 4 28.5981 4C31.7549 3.99999 34.2056 5.11196 35.9502 7.3359C37.6116 9.64221 38.4424 12.4839 38.4424 15.861C38.4424 20.4736 37.1963 24.592 34.704 28.2162C32.2118 31.8404 28.5151 34.435 23.6137 36L21.2461 32.7876C24.2368 31.6345 26.6044 30.0283 28.3489 27.9691C30.0104 25.9923 30.8411 23.7272 30.8411 21.1737C30.8411 20.1853 30.3842 19.8559 29.4704 20.1853Z" fill="#677880"/>
</svg>
