<svg width="80" height="40" viewBox="0 0 80 40" fill="none" xmlns="http://www.w3.org/2000/svg">
<path d="M28.972 19.8147C30.2181 19.4852 31.3811 19.5264 32.4611 19.9382C33.6241 20.2677 34.621 20.8031 35.4517 21.5444C36.3655 22.2857 37.0717 23.1918 37.5701 24.2626C38.1516 25.3333 38.4424 26.4041 38.4424 27.4749C38.4424 29.6165 37.6532 31.5933 36.0748 33.4054C34.4964 35.1351 32.4195 36 29.8442 36C26.6874 36 24.2368 34.888 22.4922 32.6641C20.8307 30.3578 20 27.5161 20 24.139C20 19.5264 21.2461 15.408 23.7383 11.7838C26.2305 8.15959 29.9273 5.56499 34.8287 4L37.1963 7.21236C34.2056 8.36551 31.838 9.97169 30.0935 12.0309C28.432 14.0077 27.6012 16.2728 27.6012 18.8263C27.6012 19.8147 28.0582 20.1441 28.972 19.8147ZM50.5296 19.8147C51.7757 19.4852 52.9803 19.5264 54.1433 19.9382C55.3063 20.2677 56.3032 20.8031 57.134 21.5444C58.0478 22.2857 58.7539 23.1918 59.2523 24.2626C59.7508 25.3333 60 26.4041 60 27.4749C60 29.6165 59.2108 31.5933 57.6324 33.4054C56.054 35.1351 53.9772 36 51.4019 36C48.2451 36 45.7944 34.888 44.0498 32.6641C42.3884 30.3578 41.5576 27.5161 41.5576 24.139C41.5576 19.5264 42.8037 15.408 45.2959 11.7838C47.7882 8.15959 51.4849 5.56499 56.3863 4L58.7539 7.21236C55.7632 8.36551 53.3956 9.97169 51.6511 12.0309C49.9896 14.0077 49.1589 16.2728 49.1589 18.8263C49.1589 19.8147 49.6158 20.1441 50.5296 19.8147Z" fill="#29363D"/>
</svg>
