<svg width="24" height="24" viewBox="0 0 24 24" fill="none" xmlns="http://www.w3.org/2000/svg">
<path d="M17 2H7C4.23858 2 2 4.23858 2 7V17C2 19.7614 4.23858 22 7 22H17C19.7614 22 22 19.7614 22 17V7C22 4.23858 19.7614 2 17 2Z" stroke="#4F4F4F" stroke-width="1.6" stroke-linecap="round" stroke-linejoin="round"/>
<path d="M16.0002 11.37C16.1236 12.2022 15.9815 13.0522 15.594 13.799C15.2065 14.5458 14.5933 15.1514 13.8418 15.5297C13.0903 15.9079 12.2386 16.0396 11.408 15.9059C10.5773 15.7723 9.80996 15.3801 9.21503 14.7852C8.62011 14.1902 8.22793 13.4229 8.09426 12.5922C7.9606 11.7615 8.09226 10.9099 8.47052 10.1584C8.84878 9.40685 9.45438 8.79374 10.2012 8.40624C10.948 8.01874 11.7979 7.87658 12.6302 8C13.4791 8.12588 14.265 8.52146 14.8719 9.1283C15.4787 9.73515 15.8743 10.5211 16.0002 11.37Z" stroke="#4F4F4F" stroke-width="1.6" stroke-linecap="round" stroke-linejoin="round"/>
<path d="M17.5 6.5H17.51" stroke="#4F4F4F" stroke-width="1.6" stroke-linecap="round" stroke-linejoin="round"/>
</svg>
