<svg width="32" height="32" viewBox="0 0 32 32" fill="none" xmlns="http://www.w3.org/2000/svg">
<path fill-rule="evenodd" clip-rule="evenodd" d="M25 9.5C25 7.567 23.433 6 21.5 6C19.567 6 18 7.567 18 9.5C18 9.71935 18.0202 9.934 18.0588 10.1422L12.6932 13.2722C12.0931 12.7891 11.3303 12.5 10.5 12.5C8.567 12.5 7 14.067 7 16C7 17.933 8.567 19.5 10.5 19.5C11.328 19.5 12.0889 19.2125 12.6882 18.7318L18.0573 21.8659C18.0197 22.0715 18 22.2835 18 22.5C18 24.433 19.567 26 21.5 26C23.433 26 25 24.433 25 22.5C25 20.567 23.433 19 21.5 19C20.5045 19 19.6061 19.4156 18.9688 20.0827L13.8294 17.0825C13.9401 16.7416 14 16.3778 14 16C14 15.6248 13.9409 15.2633 13.8316 14.9244L18.9746 11.9233C19.6115 12.5869 20.5075 13 21.5 13C23.433 13 25 11.433 25 9.5ZM20 22.5C20 21.6716 20.6716 21 21.5 21C22.3284 21 23 21.6716 23 22.5C23 23.3284 22.3284 24 21.5 24C20.6716 24 20 23.3284 20 22.5ZM10.5 14.5C9.67157 14.5 9 15.1716 9 16C9 16.8284 9.67157 17.5 10.5 17.5C11.3284 17.5 12 16.8284 12 16C12 15.1716 11.3284 14.5 10.5 14.5ZM20 9.5C20 8.67157 20.6716 8 21.5 8C22.3284 8 23 8.67157 23 9.5C23 10.3284 22.3284 11 21.5 11C20.6716 11 20 10.3284 20 9.5Z" fill="#5A6A72"/>
</svg>
