<svg width="32" height="32" viewBox="0 0 32 32" fill="none" xmlns="http://www.w3.org/2000/svg">
<path fill-rule="evenodd" clip-rule="evenodd" d="M12 10C12 7.79086 13.7909 6 16 6C18.2091 6 20 7.79086 20 10C20 12.2091 18.2091 14 16 14C13.7909 14 12 12.2091 12 10ZM18 10C18 8.89543 17.1046 8 16 8C14.8954 8 14 8.89543 14 10C14 11.1046 14.8954 12 16 12C17.1046 12 18 11.1046 18 10ZM17.6822 26H8V24H11V23.999H15.8021C15.292 23.1167 15 22.0924 15 21C15 19.4735 15.57 18.0802 16.5088 17.0213C16.4148 17.0134 16.3202 17.0076 16.2249 17.0041L16 17C13.027 17 10.559 19.1623 10.083 22H8.06189C8.55399 18.0537 11.9204 15 16 15C16.9425 15 17.8468 15.163 18.6865 15.4623C19.3985 15.1645 20.18 15 21 15C24.3137 15 27 17.6863 27 21C27 24.3137 24.3137 27 21 27C19.7733 27 18.6325 26.6318 17.6822 26ZM16.8 21C16.8 18.6804 18.6804 16.8 21 16.8C23.3196 16.8 25.2 18.6804 25.2 21C25.2 23.3196 23.3196 25.2 21 25.2C18.6804 25.2 16.8 23.3196 16.8 21ZM20.1 18V20.1H18V21.9H20.1V24H21.9V21.9H24V20.1H21.9V18H20.1Z" fill="#5A6A72"/>
</svg>
