<svg width="32" height="32" viewBox="0 0 32 32" fill="none" xmlns="http://www.w3.org/2000/svg">
<path fill-rule="evenodd" clip-rule="evenodd" d="M16 6C18.2091 6 20 7.79086 20 10C20 12.2091 18.2091 14 16 14C13.7909 14 12 12.2091 12 10C12 7.79086 13.7909 6 16 6ZM22 24V23C22 19.7616 19.4344 17.1224 16.2249 17.0041L16 17C13.0269 17 10.5589 19.1624 10.0829 22.0002L8.06189 22C8.55396 18.0537 11.9204 15 16 15C20.4183 15 24 18.5817 24 23V26H8V24H22ZM14 10C14 8.89543 14.8954 8 16 8C17.1046 8 18 8.89543 18 10C18 11.1046 17.1046 12 16 12C14.8954 12 14 11.1046 14 10Z" fill="#5A6A72"/>
</svg>
